HIERARCHY
ROOT Hips
{
	OFFSET 0.000000 0.000000 0.000000 
	CHANNELS 6 Xposition Yposition Zposition Zrotation Yrotation Xrotation
	JOINT LeftUpLeg
	{
		OFFSET 1.363060 -1.794630 0.839290 
		CHANNELS 3 Zrotation Yrotation Xrotation
		JOINT LeftLeg
		{
			OFFSET 2.448110 -6.726130 0.000000 
			CHANNELS 3 Zrotation Yrotation Xrotation
			JOINT LeftFoot
			{
				OFFSET 2.562200 -7.039590 0.000000 
				CHANNELS 3 Zrotation Yrotation Xrotation
				JOINT LeftToeBase
				{
					OFFSET 0.157640 -0.433110 2.322550 
					CHANNELS 3 Zrotation Yrotation Xrotation
					End Site
					{
						OFFSET 0.000000 0.000000 0.000000 
					}
				}
			}
		}
	}
	JOINT RightUpLeg
	{
		OFFSET -1.305520 -1.794630 0.839290 
		CHANNELS 3 Zrotation Yrotation Xrotation
		JOINT RightLeg
		{
			OFFSET -2.542530 -6.985550 0.000000 
			CHANNELS 3 Zrotation Yrotation Xrotation
			JOINT RightFoot
			{
				OFFSET -2.568260 -7.056230 0.000000 
				CHANNELS 3 Zrotation Yrotation Xrotation
				JOINT RightToeBase
				{
					OFFSET -0.164730 -0.452590 2.363150 
					CHANNELS 3 Zrotation Yrotation Xrotation
					End Site
					{
						OFFSET 0.000000 0.000000 0.000000 
					}
				}
			}
		}
	}
	JOINT Spine
	{
		OFFSET 0.028270 2.035590 -0.193380 
		CHANNELS 3 Zrotation Yrotation Xrotation
		JOINT Spine1
		{
			OFFSET 0.056720 2.048850 -0.042750 
			CHANNELS 3 Zrotation Yrotation Xrotation
			JOINT Neck1
			{
				OFFSET -0.054170 1.746240 0.172020 
				CHANNELS 3 Zrotation Yrotation Xrotation
				JOINT Head
				{
					OFFSET 0.104070 1.761360 -0.123970 
					CHANNELS 3 Zrotation Yrotation Xrotation
					End Site
					{
						OFFSET 0.000000 0.000000 0.000000 
					}
				}
			}
			JOINT LeftArm
			{
				OFFSET 3.362410 1.200890 -0.311210 
				CHANNELS 3 Zrotation Yrotation Xrotation
				JOINT LeftForeArm
				{
					OFFSET 4.983000 -0.000000 -0.000000 
					CHANNELS 3 Zrotation Yrotation Xrotation
					JOINT LeftHand
					{
						OFFSET 3.483560 -0.000000 -0.000000 
						CHANNELS 3 Zrotation Yrotation Xrotation
						JOINT LeftHandIndex1
						{
							OFFSET 0.715260 -0.000000 -0.000000 
							CHANNELS 3 Zrotation Yrotation Xrotation
							End Site
							{
								OFFSET 0.000000 0.000000 0.000000 
							}
						}
					}
				}
			}
			JOINT RightArm
			{
				OFFSET -3.136600 1.374050 -0.404650 
				CHANNELS 3 Zrotation Yrotation Xrotation
				JOINT RightForeArm
				{
					OFFSET -5.241900 -0.000000 -0.000000 
					CHANNELS 3 Zrotation Yrotation Xrotation
					JOINT RightHand
					{
						OFFSET -3.444170 -0.000000 -0.000000 
						CHANNELS 3 Zrotation Yrotation Xrotation
						JOINT RightHandIndex1
						{
							OFFSET -0.622530 -0.000000 -0.000000 
							CHANNELS 3 Zrotation Yrotation Xrotation
							End Site
							{
								OFFSET 0.000000 0.000000 0.000000 
							}
						}
					}
				}
			}
		}
	}
}
MOTION
Frames: 9
Frame Time: 0.041667
2.259096 17.863759 -25.139353 3.359771 -0.742335 -2.969573 -24.670682 -6.034983 -3.371229 -0.576087 5.462573 21.175857 -0.276386 2.498712 4.291940 0.000300 -0.115600 -0.317600 15.186661 4.686031 -30.682931 -5.679652 -14.120251 44.724431 2.846326 -11.583724 6.935199 -0.006200 -0.508800 1.398100 0.506633 -2.579597 5.754828 3.806385 -1.045135 -11.793058 -0.546325 0.586568 21.935250 -1.134800 0.160100 10.130900 -85.592917 0.345108 25.992336 26.728283 -35.952650 -9.405981 0.007169 -1.721723 -10.286835 -7.125000 0.000000 0.000000 87.284813 -1.596115 19.402739 -21.352409 31.036904 -5.833891 -0.358086 0.494406 -3.097922 7.125000 0.000000 0.000000 
2.265178 17.869436 -25.014372 3.354252 -0.532687 -2.879495 -24.631506 -5.959471 -2.756079 -0.671408 5.251387 20.606376 -0.280547 2.502532 4.309918 0.001300 -0.231500 -0.636200 15.149727 4.467554 -30.811030 -5.029554 -13.595715 42.467588 2.923561 -11.749667 6.797991 -0.040900 -1.304600 3.587400 0.579081 -2.670130 5.598246 3.883170 -1.082196 -12.014107 -0.340823 0.748814 21.560819 -1.017400 0.248400 9.850200 -85.563733 0.420956 25.591698 26.472212 -35.691974 -9.229321 0.054257 -1.683196 -8.872563 -7.125000 0.000000 0.000000 87.223778 -1.900717 19.525466 -21.448538 31.147678 -5.879619 -0.364854 0.497344 -3.420959 7.125000 0.000000 0.000000 
2.272679 17.870145 -24.880673 3.652403 -0.228300 -2.800770 -24.978116 -5.931732 -2.202986 -0.702141 5.146939 20.385089 -0.241060 2.365235 4.036153 0.004500 -0.432500 -1.188500 14.746561 4.153627 -30.955053 -4.407586 -13.061765 40.202534 3.025273 -12.026544 6.869352 -0.045900 -1.383300 3.804200 0.478348 -2.751455 5.587888 3.878249 -1.123468 -11.956929 -0.146037 0.645309 21.269479 -0.949800 0.217800 9.681900 -85.443196 0.273472 26.071772 26.667671 -35.888714 -9.362619 0.036258 -1.669046 -8.973032 -7.125000 0.000000 0.000000 87.334608 -1.867764 18.935672 -21.575580 31.309715 -5.944950 -0.364779 0.507334 -2.199391 7.125000 0.000000 0.000000 
2.270246 17.861225 -24.774646 3.250958 -0.151497 -2.517337 -24.425551 -5.942511 -2.022167 -0.788359 4.996440 19.921400 -0.238023 2.381609 4.102380 0.004100 -0.412600 -1.133600 14.983287 4.566681 -31.001965 -3.781668 -12.456100 37.965789 3.050353 -11.979187 6.479491 -0.192700 -2.827000 7.797500 0.559480 -2.684167 5.934344 3.644766 -1.158442 -11.438730 -0.063966 0.456098 21.301916 -0.944500 0.129700 9.896700 -85.268210 -0.750472 26.266772 26.720573 -35.935940 -9.394996 0.017682 -1.649746 -8.761577 -7.125000 0.000000 0.000000 87.551755 -0.847824 18.403923 -21.392993 31.078952 -5.841454 -0.365130 0.501005 -1.597697 7.125000 0.000000 0.000000 
2.273389 17.868422 -24.647536 3.634375 0.020150 -2.448963 -24.775669 -5.554626 -1.464426 -0.863629 4.777704 19.398994 -0.136390 2.049383 4.189273 0.001900 -0.280000 -0.769400 14.467502 4.339228 -31.085058 -3.195272 -11.867559 35.658464 3.110878 -12.215374 7.047668 -0.141700 -2.426000 6.684400 0.580091 -2.780908 5.970568 3.904503 -1.192968 -11.410974 0.010817 0.461063 21.401721 -0.864100 0.109200 9.992900 -85.389830 -0.959982 26.088848 26.522876 -35.732600 -9.273958 0.001385 -1.557908 -8.276050 -7.125000 0.000000 0.000000 87.378738 -0.645154 18.339266 -21.211770 30.863385 -5.743208 -0.360959 0.504478 -1.541146 7.125000 0.000000 0.000000 
2.273490 17.877747 -24.522250 3.770367 0.057810 -2.345567 -24.818545 -5.140639 -1.021990 -0.933888 4.582226 18.912489 -0.037135 1.736711 4.373477 0.000500 -0.145100 -0.398600 14.151076 4.436615 -31.006844 -2.601784 -11.201518 33.252001 3.186149 -12.453424 7.418175 -0.121500 -2.246700 6.187900 0.656273 -2.829486 5.530075 4.133464 -1.168492 -12.059651 -0.015814 0.715722 21.319328 -0.858500 0.236400 9.838600 -85.461297 -0.208109 26.669641 26.702590 -35.920146 -9.390288 0.003653 -1.699696 -9.104961 -7.125000 0.000000 0.000000 87.254171 -1.467830 18.374517 -21.180472 30.848548 -5.734186 -0.351530 0.517234 -1.355312 7.125000 0.000000 0.000000 
2.268422 17.889810 -24.395241 3.876186 0.187817 -2.192060 -24.759637 -4.814512 -0.432979 -1.058998 4.270807 18.089695 0.043018 1.476095 4.775862 0.003300 0.369200 1.014600 13.800296 4.743614 -30.842803 -2.035156 -10.510576 30.864409 3.314238 -12.775721 7.425486 -0.109100 -2.130200 5.865600 0.591912 -2.812400 5.573856 4.083872 -1.176004 -11.921993 -0.043177 0.278758 21.270551 -0.919500 0.033600 9.821200 -85.293677 -0.360869 27.135528 26.791280 -36.011995 -9.454007 -0.007210 -1.712363 -9.487116 -7.125000 0.000000 0.000000 87.439578 -1.417631 18.172543 -21.155254 30.780064 -5.706695 -0.369286 0.494528 -1.179144 7.125000 0.000000 0.000000 
2.265280 17.923462 -24.261644 3.853705 0.440045 -1.977158 -24.554774 -4.459553 -0.116551 -1.172060 3.994143 17.332526 0.064147 1.404725 5.305709 0.000500 -0.145000 -0.398300 13.548812 4.985098 -30.592875 -1.478852 -9.763034 28.405012 3.477306 -13.157856 7.273946 -0.089600 -1.930400 5.313300 0.689136 -3.072813 5.282742 4.245559 -1.284445 -12.145131 0.225928 0.487748 21.231405 -0.749300 0.139800 9.667500 -85.428136 0.238604 26.557021 26.655787 -35.875265 -9.358825 0.018477 -1.674154 -8.555331 -7.125000 0.000000 0.000000 87.327402 -1.971237 18.490838 -21.098912 30.730353 -5.684963 -0.360713 0.505991 -0.862902 7.125000 0.000000 0.000000 
2.260414 17.931268 -24.129465 3.849970 0.825577 -1.766834 -24.368835 -4.225788 0.458935 -1.283518 3.702386 16.558101 0.107335 1.265962 5.602651 0.009700 -0.635500 -1.746300 13.195070 5.357431 -30.332661 -0.973563 -9.024238 26.028118 3.692863 -13.660616 6.995459 -0.053200 -1.488900 4.095200 0.638056 -3.085103 5.846777 4.073613 -1.374986 -11.037241 0.326025 0.324520 21.011162 -0.751500 0.076700 9.712300 -85.170953 -0.807716 27.271210 26.665381 -35.883872 -9.371165 0.007050 -1.692023 -9.506243 -7.125000 0.000000 0.000000 87.618560 -1.028637 18.041246 -20.903667 30.492687 -5.577234 -0.357967 0.515447 -0.291677 7.125000 0.000000 0.000000 
